<?xml version="1.0" standalone="no"?>
<!DOCTYPE svg PUBLIC "-//W3C//DTD SVG 20010904//EN"
 "http://www.w3.org/TR/2001/REC-SVG-20010904/DTD/svg10.dtd">
<svg version="1.0" xmlns="http://www.w3.org/2000/svg"
 width="1280.000000pt" height="765.000000pt" viewBox="0 0 1280.000000 765.000000"
 preserveAspectRatio="xMidYMid meet">
<metadata>
Created by potrace 1.15, written by Peter Selinger 2001-2017
</metadata>
<g transform="translate(0.000000,765.000000) scale(0.100000,-0.100000)"
fill="#009688" stroke="none">
<path d="M2060 7634 c-103 -28 -154 -67 -215 -169 -75 -126 -93 -257 -50 -380
10 -29 13 -51 8 -52 -6 -2 -18 -10 -28 -17 -17 -12 -16 -19 20 -127 39 -114
82 -179 117 -179 8 0 23 -18 33 -40 10 -22 29 -55 42 -72 12 -18 23 -35 23
-38 0 -4 -28 -44 -62 -91 -35 -46 -76 -107 -93 -136 -16 -29 -79 -105 -138
-169 -142 -154 -168 -207 -223 -450 -21 -93 -39 -145 -86 -239 -97 -193 -136
-246 -312 -420 -171 -169 -176 -176 -314 -432 -99 -185 -458 -653 -625 -815
-131 -128 -157 -160 -157 -199 0 -42 55 -107 102 -119 76 -21 182 11 199 58 7
20 23 35 52 48 68 31 103 69 131 142 20 52 34 72 59 87 50 29 143 102 227 178
41 38 127 107 190 155 72 53 187 158 306 276 162 163 196 201 224 259 18 37
64 111 104 165 39 53 84 117 100 142 16 25 64 88 106 140 123 154 165 211 198
275 18 33 50 80 71 105 l39 45 93 -23 c122 -31 243 -80 332 -135 40 -25 119
-67 177 -94 58 -28 144 -80 193 -116 100 -75 165 -109 327 -170 92 -34 116
-47 118 -64 2 -12 -39 -106 -91 -209 -147 -293 -201 -480 -368 -1274 -34 -162
-64 -305 -66 -317 -3 -12 3 -48 13 -80 28 -89 101 -157 240 -223 60 -29 152
-83 204 -120 126 -89 176 -117 360 -195 171 -72 242 -115 289 -172 140 -173
161 -207 161 -266 0 -44 -27 -68 -85 -75 -62 -7 -354 14 -548 39 -130 17 -169
19 -220 10 -145 -25 -224 -144 -171 -256 53 -112 417 -272 1374 -605 208 -72
495 -175 1060 -380 1177 -427 1888 -604 2935 -729 658 -80 1098 -106 1765
-105 536 0 778 11 1195 54 414 43 526 65 855 172 85 27 220 70 300 95 154 48
197 69 230 110 62 80 -32 144 -282 192 -57 11 -240 40 -408 66 -168 25 -359
55 -425 65 -66 11 -237 38 -380 60 -1054 165 -1959 311 -2700 436 -465 78
-724 124 -1102 198 -177 35 -387 66 -441 66 -15 0 -70 12 -122 27 -115 34
-113 31 -366 333 -100 118 -216 256 -259 305 -42 50 -148 185 -235 300 -183
243 -256 326 -358 407 -68 54 -194 121 -307 164 -33 13 -55 29 -67 50 -39 67
-96 331 -118 549 -17 172 -40 758 -40 1037 0 409 -28 558 -148 792 -94 184
-202 302 -382 417 -248 158 -310 201 -382 263 -79 67 -181 191 -175 210 2 7
74 15 183 22 98 6 251 19 339 29 177 19 248 16 389 -17 80 -18 126 -21 376
-23 269 -2 292 -3 405 -29 66 -15 135 -29 154 -33 19 -3 53 -18 75 -33 23 -15
79 -47 125 -70 82 -43 84 -43 130 -30 25 7 74 18 108 24 45 8 67 17 78 33 15
21 20 22 130 16 101 -5 115 -4 121 11 12 32 -22 64 -83 76 -32 7 -74 17 -93
24 l-35 11 32 3 c18 2 65 -6 106 -17 93 -27 143 -27 156 -3 26 49 -65 94 -294
145 -11 3 -4 5 16 6 20 0 68 -9 105 -20 78 -24 165 -30 171 -12 14 39 -107 80
-274 92 -92 6 -119 15 -94 30 18 11 148 24 161 16 6 -4 29 -4 51 0 34 6 40 10
37 28 -6 40 -51 52 -193 50 -180 -2 -315 -18 -390 -48 -74 -30 -87 -31 -109
-6 -11 13 -37 20 -83 25 -168 17 -482 86 -763 166 -135 39 -157 42 -325 50
-99 5 -229 15 -290 24 -60 8 -166 20 -235 26 -160 14 -296 33 -490 70 -319 60
-364 61 -783 9 -246 -30 -265 -30 -286 9 -5 9 -14 44 -21 77 -15 75 -26 95
-49 95 -27 0 -37 18 -51 94 -48 260 -278 408 -530 340z m2265 -3429 c106 -68
125 -99 184 -303 43 -148 62 -247 106 -572 43 -311 60 -366 176 -558 39 -65
50 -76 104 -101 389 -185 360 -168 440 -257 92 -100 282 -232 538 -373 66 -37
91 -58 159 -140 44 -53 87 -111 96 -129 15 -30 15 -34 -1 -50 -24 -23 -88 -21
-262 11 -77 14 -327 56 -555 92 -461 74 -597 99 -649 121 l-36 15 62 57 c71
66 83 86 83 141 0 55 -27 112 -97 206 -67 90 -88 110 -153 150 -25 16 -71 56
-103 91 -47 51 -67 66 -110 78 -110 32 -183 99 -262 240 -62 111 -156 209
-283 295 -114 77 -132 96 -132 137 0 49 221 395 394 617 33 42 66 101 87 154
19 47 46 98 61 115 26 28 28 28 61 14 20 -8 61 -31 92 -51z"/>
</g>
</svg>
